<?xml version="1.0" encoding="UTF-8"?>
<svg version="1.1" xmlns="http://www.w3.org/2000/svg" width="86" height="88">
<path d="M0 0 C28.38 0 56.76 0 86 0 C86 29.04 86 58.08 86 88 C57.62 88 29.24 88 0 88 C0 58.96 0 29.92 0 0 Z " fill="#FCFCFB" transform="translate(0,0)"/>
<path d="M0 0 C28.38 0 56.76 0 86 0 C86 29.04 86 58.08 86 88 C57.62 88 29.24 88 0 88 C0 58.96 0 29.92 0 0 Z M11.53515625 19.921875 C4.5682036 29.35296612 2.91642508 39.45707556 4 51 C6.73212407 62.43679845 12.75111152 71.4377288 22.5 78 C31.96303035 83.50176183 42.3560966 84.84672137 53.13671875 82.2421875 C64.11112347 78.4393242 72.70676647 71.50161697 78.125 61.125 C82.64785161 51.52729521 83.80901368 41.43757391 80.375 31.25 C75.84872972 20.36162954 68.81723945 11.68166852 57.9140625 6.77734375 C40.03212669 -0.48491181 23.4728926 5.67273184 11.53515625 19.921875 Z " fill="#C4B38D" transform="translate(0,0)"/>
<path d="M0 0 C1.875 1.4375 1.875 1.4375 3 4 C3.11322083 6.2853835 3.06261373 8.49829697 2.91015625 10.78125 C3.01342636 13.33157279 3.82306723 14.76804782 5 17 C4.625 19.25 4.625 19.25 4 21 C4.66 21 5.32 21 6 21 C6.33 23.31 6.66 25.62 7 28 C7.66 28 8.32 28 9 28 C9.495 28.99 9.495 28.99 10 30 C11.65 30 13.3 30 15 30 C14.01 30.33 13.02 30.66 12 31 C12 31.66 12 32.32 12 33 C8.535 34.98 8.535 34.98 5 37 C8.3 37 11.6 37 15 37 C15.33 36.01 15.66 35.02 16 34 C16.495 35.98 16.495 35.98 17 38 C14.29120665 39.35439668 11.99066732 39.06501451 9 39 C9 40.32 9 41.64 9 43 C11.31 43 13.62 43 16 43 C16.495 42.01 16.495 42.01 17 41 C17 41.99 17 42.98 17 44 C17.99 44 18.98 44 20 44 C20 44.99 20 45.98 20 47 C19.09378906 46.98839844 18.18757813 46.97679687 17.25390625 46.96484375 C11.11817088 46.91939386 5.15128581 46.98901472 -0.93359375 47.7734375 C-8.30051011 48.58115234 -15.66268549 47.76801797 -23 47 C-22.74273307 45.10227809 -22.46856661 43.20684323 -22.1875 41.3125 C-22.03667969 40.25675781 -21.88585937 39.20101562 -21.73046875 38.11328125 C-20.97608241 34.89806247 -19.84125013 32.71899677 -18 30 C-17.608125 30.474375 -17.21625 30.94875 -16.8125 31.4375 C-14.59191626 33.35179633 -12.86624291 33.61266988 -10 34 C-10 33.34 -10 32.68 -10 32 C-10.99 32 -11.98 32 -13 32 C-13.33 31.01 -13.66 30.02 -14 29 C-12.68 29.33 -11.36 29.66 -10 30 C-10.31049726 28.56206608 -10.6234776 27.1246682 -10.9375 25.6875 C-11.11152344 24.88699219 -11.28554688 24.08648437 -11.46484375 23.26171875 C-11.99886159 20.854599 -11.99886159 20.854599 -13 18 C-11.02 17.34 -9.04 16.68 -7 16 C-7.33 14.96875 -7.66 13.9375 -8 12.875 C-8.95381654 9.4851772 -9.40221786 6.53951715 -9 3 C-6.79848461 -0.66919231 -4.00961374 -0.58473534 0 0 Z " fill="#9D9890" transform="translate(46,19)"/>
<path d="M0 0 C2 2 2 2 2.125 5.625 C2.08375 6.73875 2.0425 7.8525 2 9 C3.65 8.67 5.3 8.34 7 8 C6.67 8.99 6.34 9.98 6 11 C7.32 11 8.64 11 10 11 C10 11.99 10 12.98 10 14 C10.99 13.67 11.98 13.34 13 13 C17.08594833 11.8134874 20.76342394 11.85134821 25 12 C25.33 11.01 25.66 10.02 26 9 C26.495 10.98 26.495 10.98 27 13 C24.29120665 14.35439668 21.99066732 14.06501451 19 14 C19 15.32 19 16.64 19 18 C21.31 18 23.62 18 26 18 C26.33 17.34 26.66 16.68 27 16 C27 16.99 27 17.98 27 19 C27.99 19 28.98 19 30 19 C30 19.99 30 20.98 30 22 C29.09378906 21.98839844 28.18757813 21.97679688 27.25390625 21.96484375 C21.11817088 21.91939386 15.15128581 21.98901472 9.06640625 22.7734375 C1.69948989 23.58115234 -5.66268549 22.76801797 -13 22 C-12.74273307 20.10227809 -12.46856661 18.20684323 -12.1875 16.3125 C-12.03667969 15.25675781 -11.88585937 14.20101562 -11.73046875 13.11328125 C-10.97608241 9.89806247 -9.84125013 7.71899677 -8 5 C-7.608125 5.474375 -7.21625 5.94875 -6.8125 6.4375 C-4.59191626 8.35179633 -2.86624291 8.61266988 0 9 C0 8.34 0 7.68 0 7 C-0.99 7 -1.98 7 -3 7 C-3.33 6.01 -3.66 5.02 -4 4 C-2.68 4.33 -1.36 4.66 0 5 C0 3.35 0 1.7 0 0 Z " fill="#6E6559" transform="translate(36,44)"/>
<path d="M0 0 C0 3.3 0 6.6 0 10 C0.66 9.67 1.32 9.34 2 9 C2.65213292 6.97536745 2.65213292 6.97536745 3 5 C5.64 5 8.28 5 11 5 C11 5.99 11 6.98 11 8 C10.67 8.33 10.34 8.66 10 9 C10.66 9 11.32 9 12 9 C12 9.66 12 10.32 12 11 C12.66 11 13.32 11 14 11 C14 15 14 19 14 23 C11.125 23.125 11.125 23.125 8 23 C7.34 22.34 6.68 21.68 6 21 C5.34 20.67 4.68 20.34 4 20 C4 19.34 4 18.68 4 18 C2.68 18 1.36 18 0 18 C-0.12375 16.865625 -0.2475 15.73125 -0.375 14.5625 C-0.58125 13.386875 -0.7875 12.21125 -1 11 C-1.66 10.67 -2.32 10.34 -3 10 C-3.39171753 8.34608154 -3.72057545 6.67654729 -4 5 C-4.33 4.01 -4.66 3.02 -5 2 C-1.125 0 -1.125 0 0 0 Z " fill="#B8B1A3" transform="translate(38,35)"/>
<path d="M0 0 C2.5 1.8125 2.5 1.8125 5 4 C5 4.99 5 5.98 5 7 C5.99 7 6.98 7 8 7 C8.33 7.66 8.66 8.32 9 9 C11.02463255 9.65213292 11.02463255 9.65213292 13 10 C13.38133299 11.9914056 13.71325582 13.99279077 14 16 C13 17 13 17 10.625 17.1875 C8 17 8 17 5 15 C2.6670134 14.95977609 0.33293334 14.95679753 -2 15 C-3.56033623 13.43966377 -3.20707559 11.91052864 -3.25 9.75 C-3.22417607 5.70209821 -2.5319768 3.27047003 0 0 Z " fill="#D9AF55" transform="translate(28,49)"/>
<path d="M0 0 C0.66 0.99 1.32 1.98 2 3 C0.7934375 3.433125 0.7934375 3.433125 -0.4375 3.875 C-3.1326468 4.73262568 -3.1326468 4.73262568 -4 7 C-2.02 6.67 -0.04 6.34 2 6 C2 6.66 2 7.32 2 8 C1.01 8 0.02 8 -1 8 C-0.2236068 11.0745356 -0.2236068 11.0745356 2 13 C0.02 13.99 0.02 13.99 -2 15 C-1.01 15.33 -0.02 15.66 1 16 C0.67 16.99 0.34 17.98 0 19 C-1.32 18.67 -2.64 18.34 -4 18 C-4 20.31 -4 22.62 -4 25 C-4.66 25 -5.32 25 -6 25 C-5.98839844 23.94039062 -5.97679687 22.88078125 -5.96484375 21.7890625 C-5.95546524 20.40104342 -5.94636511 19.01302245 -5.9375 17.625 C-5.92912109 16.92632812 -5.92074219 16.22765625 -5.91210938 15.5078125 C-5.8164558 11.62704624 -5.8164558 11.62704624 -7 8 C-7.039992 6.00039988 -7.04346799 3.99952758 -7 2 C-4.66666667 2 -2.33333333 2 0 2 C0 1.34 0 0.68 0 0 Z " fill="#8A8680" transform="translate(44,20)"/>
<path d="M0 0 C0 3.3 0 6.6 0 10 C0.66 9.67 1.32 9.34 2 9 C2.65213292 6.97536745 2.65213292 6.97536745 3 5 C5.64 5 8.28 5 11 5 C11 5.99 11 6.98 11 8 C10.67 8.33 10.34 8.66 10 9 C10.66 9 11.32 9 12 9 C12 9.99 12 10.98 12 12 C10.39125 11.938125 10.39125 11.938125 8.75 11.875 C5.34252515 11.9885825 3.79260369 12.21273364 1 14 C-2.29398797 11.13104274 -3.44570092 9.32353282 -4 5 C-4.33 4.01 -4.66 3.02 -5 2 C-1.125 0 -1.125 0 0 0 Z " fill="#B3ACA1" transform="translate(38,35)"/>
<path d="M0 0 C5.625 -0.25 5.625 -0.25 9 2 C11.33199388 2.07905064 13.66832622 2.08798769 16 2 C16.33 1.34 16.66 0.68 17 0 C17 0.99 17 1.98 17 3 C17.99 3 18.98 3 20 3 C20 3.99 20 4.98 20 6 C12.74 6 5.48 6 -2 6 C-1.34 4.02 -0.68 2.04 0 0 Z " fill="#D0A238" transform="translate(46,60)"/>
<path d="M0 0 C3.125 0.3125 3.125 0.3125 4.80859375 1.84765625 C6.61591385 5.23168884 6.45000625 8.33220222 6.3125 12.0625 C6.29896484 12.75988281 6.28542969 13.45726562 6.27148438 14.17578125 C6.2362945 15.88835541 6.18249155 17.60052941 6.125 19.3125 C5.465 18.6525 4.805 17.9925 4.125 17.3125 C4.455 16.3225 4.785 15.3325 5.125 14.3125 C2.65 13.3225 2.65 13.3225 0.125 12.3125 C0.125 11.3225 0.125 10.3325 0.125 9.3125 C1.115 9.3125 2.105 9.3125 3.125 9.3125 C2.05854885 8.01616379 2.05854885 8.01616379 -0.4375 8.25 C-1.241875 8.270625 -2.04625 8.29125 -2.875 8.3125 C-1.875 5.3125 -1.875 5.3125 -0.875 4.3125 C-1.865 3.3225 -2.855 2.3325 -3.875 1.3125 C-2.875 0.3125 -2.875 0.3125 0 0 Z " fill="#B2AFA9" transform="translate(42.875,18.6875)"/>
<path d="M0 0 C1.65 1.65 3.3 3.3 5 5 C4.67 5.721875 4.34 6.44375 4 7.1875 C2.99396471 10.01697427 2.83022598 12.02895466 3 15 C1.33388095 15.042721 -0.33382885 15.04063832 -2 15 C-3.56033623 13.43966377 -3.20707559 11.91052864 -3.25 9.75 C-3.22417607 5.70209821 -2.5319768 3.27047003 0 0 Z " fill="#E6BB4B" transform="translate(28,49)"/>
<path d="M0 0 C5.445 0.495 5.445 0.495 11 1 C11 1.33 11 1.66 11 2 C9.824375 2.0928125 9.824375 2.0928125 8.625 2.1875 C7.75875 2.455625 6.8925 2.72375 6 3 C4.68931667 5.44288628 4.68931667 5.44288628 4 8 C3 9 3 9 -0.875 9.125 C-6.27930224 9.07278452 -11.62816106 8.56228595 -17 8 C-16.67 7.01 -16.34 6.02 -16 5 C-14.37536158 4.94604522 -12.75021459 4.90722805 -11.125 4.875 C-10.22007813 4.85179687 -9.31515625 4.82859375 -8.3828125 4.8046875 C-6 5 -6 5 -4 7 C-1.41645782 7.16687448 -1.41645782 7.16687448 1 7 C0.67 4.69 0.34 2.38 0 0 Z " fill="#97876C" transform="translate(40,58)"/>
<path d="M0 0 C9.24 0 18.48 0 28 0 C28 0.99 28 1.98 28 3 C7.58986175 3.19815668 7.58986175 3.19815668 1 2 C0.67 1.34 0.34 0.68 0 0 Z " fill="#EDE2C9" transform="translate(23,66)"/>
<path d="M0 0 C3.33727786 1.17255709 5.77437487 2.18868404 8 5 C8 5.66 8 6.32 8 7 C7.01 6.67 6.02 6.34 5 6 C5 8.64 5 11.28 5 14 C5.66 14.33 6.32 14.66 7 15 C6.01 15.33 5.02 15.66 4 16 C4 15.01 4 14.02 4 13 C3.34 13 2.68 13 2 13 C1.67 10.69 1.34 8.38 1 6 C0.34 6 -0.32 6 -1 6 C-0.67 4.02 -0.34 2.04 0 0 Z " fill="#D5D3CF" transform="translate(51,34)"/>
<path d="M0 0 C2.29633824 3.44450737 2.54016485 5.93812283 3 10 C2.34 9.34 1.68 8.68 1 8 C0.67 8.66 0.34 9.32 0 10 C-2.21484375 10.484375 -2.21484375 10.484375 -4.9375 10.75 C-5.83339844 10.84796875 -6.72929688 10.9459375 -7.65234375 11.046875 C-10 11 -10 11 -12 9 C-9.03 8.01 -6.06 7.02 -3 6 C-3 5.34 -3 4.68 -3 4 C-2.01 4 -1.02 4 0 4 C0 2.68 0 1.36 0 0 Z " fill="#C5C2BD" transform="translate(61,46)"/>
<path d="M0 0 C2 2 2 2 2.125 5.625 C2.08375 6.73875 2.0425 7.8525 2 9 C3.65 8.67 5.3 8.34 7 8 C6.67 8.99 6.34 9.98 6 11 C7.32 11 8.64 11 10 11 C9.67 11.99 9.34 12.98 9 14 C4.545 12.02 4.545 12.02 0 10 C0 10.66 0 11.32 0 12 C-0.99 12 -1.98 12 -3 12 C-3 11.01 -3 10.02 -3 9 C-2.01 9 -1.02 9 0 9 C0 8.34 0 7.68 0 7 C-0.99 7 -1.98 7 -3 7 C-3.33 6.01 -3.66 5.02 -4 4 C-2.68 4.33 -1.36 4.66 0 5 C0 3.35 0 1.7 0 0 Z " fill="#8E8982" transform="translate(36,44)"/>
<path d="M0 0 C0.66 0 1.32 0 2 0 C2 0.66 2 1.32 2 2 C3.98 2 5.96 2 8 2 C8.33 3.65 8.66 5.3 9 7 C5.37 7 1.74 7 -2 7 C-2.33 5.35 -2.66 3.7 -3 2 C-2.34 2 -1.68 2 -1 2 C-0.67 1.34 -0.34 0.68 0 0 Z " fill="#9F9C98" transform="translate(40,7)"/>
<path d="M0 0 C0.268125 0.61875 0.53625 1.2375 0.8125 1.875 C1.95556848 4.2995233 1.95556848 4.2995233 5 6 C5 6.66 5 7.32 5 8 C4.01 8 3.02 8 2 8 C2 8.66 2 9.32 2 10 C2.99 10 3.98 10 5 10 C5 10.66 5 11.32 5 12 C2.69 11.67 0.38 11.34 -2 11 C-3.14947895 7.44706507 -3.0868937 6.20023331 -1.5625 2.6875 C-1.046875 1.800625 -0.53125 0.91375 0 0 Z " fill="#D5D3D0" transform="translate(31,41)"/>
<path d="M0 0 C0.33 0.99 0.66 1.98 1 3 C1.99 3 2.98 3 4 3 C4 3.99 4 4.98 4 6 C2.58344207 6.0272415 1.16672955 6.04650467 -0.25 6.0625 C-1.43335938 6.07990234 -1.43335938 6.07990234 -2.640625 6.09765625 C-4.90691002 6.00385306 -6.8288895 5.63241063 -9 5 C-9 4.34 -9 3.68 -9 3 C-6.04335481 1.5216774 -3.25770263 1.93967217 0 2 C0 1.34 0 0.68 0 0 Z " fill="#C7BFB6" transform="translate(62,60)"/>
<path d="M0 0 C0.66 1.32 1.32 2.64 2 4 C0.87926138 4.83905565 -0.24674547 5.67107831 -1.375 6.5 C-2.00148438 6.9640625 -2.62796875 7.428125 -3.2734375 7.90625 C-5 9 -5 9 -7 9 C-8.625 7 -8.625 7 -10 5 C-9 3 -9 3 -8 2 C-7.34 2 -6.68 2 -6 2 C-6 2.66 -6 3.32 -6 4 C-5.34 3.67 -4.68 3.34 -4 3 C-4 2.34 -4 1.68 -4 1 C-3.01 1.33 -2.02 1.66 -1 2 C-0.67 1.34 -0.34 0.68 0 0 Z " fill="#9C9895" transform="translate(30,12)"/>
<path d="M0 0 C0.33 0.99 0.66 1.98 1 3 C1.99 3 2.98 3 4 3 C5.35439668 5.70879335 5.06501451 8.00933268 5 11 C3.35 10.67 1.7 10.34 0 10 C-1.125 2.25 -1.125 2.25 0 0 Z " fill="#F4F4F4" transform="translate(56,38)"/>
<path d="M0 0 C1.98 0.66 3.96 1.32 6 2 C6 2.66 6 3.32 6 4 C6.66 4.33 7.32 4.66 8 5 C7.67 6.65 7.34 8.3 7 10 C4.97954558 9.39816251 2.97888961 8.72693904 1 8 C0.67 7.34 0.34 6.68 0 6 C0.9375 3.875 0.9375 3.875 2 2 C1.34 2 0.68 2 0 2 C0 1.34 0 0.68 0 0 Z " fill="#B7B5B2" transform="translate(52,8)"/>
<path d="M0 0 C-0.97983756 2.44959389 -1.61556805 3.75652643 -3.875 5.1875 C-5.90418414 5.96336453 -7.8771208 6.54509731 -10 7 C-9.6875 4.625 -9.6875 4.625 -9 2 C-5.5647952 -0.29013653 -4.014669 -0.17842973 0 0 Z " fill="#C2BDB6" transform="translate(48,46)"/>
<path d="M0 0 C1.62463842 -0.05395478 3.24978541 -0.09277195 4.875 -0.125 C5.77992187 -0.14820313 6.68484375 -0.17140625 7.6171875 -0.1953125 C10 0 10 0 12 2 C13.98821313 2.39764263 15.98944339 2.73775349 18 3 C18 3.33 18 3.66 18 4 C11.73 3.67 5.46 3.34 -1 3 C-0.67 2.01 -0.34 1.02 0 0 Z " fill="#978151" transform="translate(24,63)"/>
<path d="M0 0 C-0.33 0.99 -0.66 1.98 -1 3 C-3.64 3.33 -6.28 3.66 -9 4 C-9.33 2.68 -9.66 1.36 -10 0 C-6.30458414 -0.95024979 -3.69541586 -0.95024979 0 0 Z " fill="#D7D6D4" transform="translate(54,76)"/>
<path d="M0 0 C0.99 0.99 1.98 1.98 3 3 C2.01 3.66 1.02 4.32 0 5 C-0.58189266 7.42521494 -0.58189266 7.42521494 -0.6875 10.125 C-0.75324219 11.03507812 -0.81898437 11.94515625 -0.88671875 12.8828125 C-0.92410156 13.58148438 -0.96148438 14.28015625 -1 15 C-1.66 14.67 -2.32 14.34 -3 14 C-3.32374517 8.49633208 -3.53286034 4.56327794 0 0 Z " fill="#BD994F" transform="translate(28,49)"/>
<path d="M0 0 C2.64 0 5.28 0 8 0 C8 0.99 8 1.98 8 3 C5.03 3.66 2.06 4.32 -1 5 C-0.67 3.35 -0.34 1.7 0 0 Z " fill="#D9D7D3" transform="translate(41,40)"/>
<path d="M0 0 C0 2.97 0 5.94 0 9 C-0.99 9.33 -1.98 9.66 -3 10 C-3.144375 9.236875 -3.28875 8.47375 -3.4375 7.6875 C-3.9632594 4.91827092 -3.9632594 4.91827092 -5 2 C-1.125 0 -1.125 0 0 0 Z " fill="#CFCDCA" transform="translate(38,35)"/>
<path d="M0 0 C0.66 0.99 1.32 1.98 2 3 C0.576875 3.6496875 0.576875 3.6496875 -0.875 4.3125 C-4.20041937 5.79302201 -4.20041937 5.79302201 -6 9 C-7 8 -7 8 -7.0625 4.9375 C-7.041875 3.968125 -7.02125 2.99875 -7 2 C-4.66666667 2 -2.33333333 2 0 2 C0 1.34 0 0.68 0 0 Z " fill="#666059" transform="translate(44,20)"/>
<path d="M0 0 C2.10633718 1.70828921 2.93801608 2.52148416 3.29296875 5.26171875 C3.25816406 6.06222656 3.22335938 6.86273438 3.1875 7.6875 C3.16042969 8.49574219 3.13335937 9.30398437 3.10546875 10.13671875 C3.07066406 10.75160156 3.03585938 11.36648437 3 12 C2.34 11.34 1.68 10.68 1 10 C1.33 9.01 1.66 8.02 2 7 C-0.475 6.01 -0.475 6.01 -3 5 C-3 4.01 -3 3.02 -3 2 C-2.01 2 -1.02 2 0 2 C0 1.34 0 0.68 0 0 Z " fill="#CBC9C7" transform="translate(46,26)"/>
<path d="M0 0 C4.95 0.99 4.95 0.99 10 2 C9.67 2.99 9.34 3.98 9 5 C8.01 4.67 7.02 4.34 6 4 C4.00038436 3.96079185 1.99950636 3.95556653 0 4 C0 2.68 0 1.36 0 0 Z " fill="#D4D3D1" transform="translate(33,75)"/>
<path d="M0 0 C0.66 0.66 1.32 1.32 2 2 C4.58354218 2.16687448 4.58354218 2.16687448 7 2 C6.01 2.33 5.02 2.66 4 3 C4 3.66 4 4.32 4 5 C1 7 1 7 -1.1875 6.625 C-1.785625 6.41875 -2.38375 6.2125 -3 6 C-2.01 4.02 -1.02 2.04 0 0 Z " fill="#76706A" transform="translate(54,47)"/>
<path d="M0 0 C1.98 0.66 3.96 1.32 6 2 C5.67 2.99 5.34 3.98 5 5 C3.68 4.67 2.36 4.34 1 4 C1 6.31 1 8.62 1 11 C0.34 11 -0.32 11 -1 11 C-1.02688151 9.35425434 -1.04634123 7.70838587 -1.0625 6.0625 C-1.07410156 5.14597656 -1.08570313 4.22945312 -1.09765625 3.28515625 C-1 1 -1 1 0 0 Z " fill="#746E66" transform="translate(39,34)"/>
<path d="M0 0 C-2 3 -2 3 -5.5 3.8125 C-6.655 3.874375 -7.81 3.93625 -9 4 C-9.66 3.34 -10.32 2.68 -11 2 C-3.57142857 -1.57142857 -3.57142857 -1.57142857 0 0 Z " fill="#F4F4F4" transform="translate(60,53)"/>
<path d="M0 0 C0.99 0.33 1.98 0.66 3 1 C3.33 3.31 3.66 5.62 4 8 C1.525 7.01 1.525 7.01 -1 6 C-0.67 4.02 -0.34 2.04 0 0 Z " fill="#F1F0F0" transform="translate(32,39)"/>
<path d="M0 0 C0.78375 0.04125 1.5675 0.0825 2.375 0.125 C2.375 2.105 2.375 4.085 2.375 6.125 C1.385 5.795 0.395 5.465 -0.625 5.125 C-0.625 4.465 -0.625 3.805 -0.625 3.125 C-1.945 2.795 -3.265 2.465 -4.625 2.125 C-2.625 0.125 -2.625 0.125 0 0 Z " fill="#A29F9A" transform="translate(45.625,32.875)"/>
<path d="M0 0 C3.96 0.33 7.92 0.66 12 1 C12 1.33 12 1.66 12 2 C6.06 2.495 6.06 2.495 0 3 C0 2.01 0 1.02 0 0 Z " fill="#F2E5C8" transform="translate(52,65)"/>
<path d="M0 0 C0 1.33333333 0 2.66666667 0 4 C-1.98 4 -3.96 4 -6 4 C-6.33 2.68 -6.66 1.36 -7 0 C-4.3333581 -1.33332095 -2.83319697 -0.67102033 0 0 Z " fill="#CDCBC7" transform="translate(52,54)"/>
<path d="M0 0 C0.99 0 1.98 0 3 0 C3.33 1.98 3.66 3.96 4 6 C2.68 6.33 1.36 6.66 0 7 C0 4.69 0 2.38 0 0 Z " fill="#EDC457" transform="translate(38,59)"/>
<path d="M0 0 C0.99 0.33 1.98 0.66 3 1 C2.67 1.66 2.34 2.32 2 3 C3.32 3 4.64 3 6 3 C5.67 3.99 5.34 4.98 5 6 C2.36 4.68 -0.28 3.36 -3 2 C-2.01 1.34 -1.02 0.68 0 0 Z " fill="#968C7A" transform="translate(40,52)"/>
<path d="M0 0 C0.33 0.99 0.66 1.98 1 3 C1.99 3 2.98 3 4 3 C4.33 4.65 4.66 6.3 5 8 C4.38125 7.67 3.7625 7.34 3.125 7 C1.08981656 5.85806765 1.08981656 5.85806765 -1 6 C-0.67 4.02 -0.34 2.04 0 0 Z " fill="#E2E1E0" transform="translate(56,38)"/>
<path d="M0 0 C2.1385485 2.1385485 2.42655063 3.13275314 3 6 C1.68 6.33 0.36 6.66 -1 7 C-1.66 5.68 -2.32 4.36 -3 3 C-2.01 3 -1.02 3 0 3 C0 2.01 0 1.02 0 0 Z " fill="#A7A4A1" transform="translate(34,8)"/>
<path d="M0 0 C1.76462683 3.08809695 2 4.23312136 2 8 C2.66 8.33 3.32 8.66 4 9 C3.01 9.33 2.02 9.66 1 10 C1 9.01 1 8.02 1 7 C0.34 7 -0.32 7 -1 7 C-1.33 6.01 -1.66 5.02 -2 4 C-1.34 4 -0.68 4 0 4 C0 2.68 0 1.36 0 0 Z " fill="#BDBBB7" transform="translate(54,40)"/>
<path d="M0 0 C-0.33 1.32 -0.66 2.64 -1 4 C-2.65 4 -4.3 4 -6 4 C-5.67 3.01 -5.34 2.02 -5 1 C-3 0 -3 0 0 0 Z " fill="#E1E0DE" transform="translate(46,23)"/>
<path d="M0 0 C0.99 0 1.98 0 3 0 C3.33 1.65 3.66 3.3 4 5 C2.02 5 0.04 5 -2 5 C-1.34 3.35 -0.68 1.7 0 0 Z " fill="#B3B1AE" transform="translate(45,9)"/>
<path d="M0 0 C2.31 0 4.62 0 7 0 C7 0.99 7 1.98 7 3 C4.625 3.1875 4.625 3.1875 2 3 C1.34 2.01 0.68 1.02 0 0 Z " fill="#DBCDAE" transform="translate(44,66)"/>
<path d="M0 0 C0.66 0 1.32 0 2 0 C2 1.65 2 3.3 2 5 C2.99 4.67 3.98 4.34 5 4 C4.67 5.32 4.34 6.64 4 8 C3.01 8 2.02 8 1 8 C0.67 5.36 0.34 2.72 0 0 Z " fill="#B19B6A" transform="translate(40,58)"/>
<path d="M0 0 C0 1.98 0 3.96 0 6 C-0.33 5.34 -0.66 4.68 -1 4 C-2.64363134 3.27840576 -4.31050386 2.60648579 -6 2 C-3 0 -3 0 0 0 Z " fill="#494139" transform="translate(55,57)"/>
<path d="M0 0 C0.99 0.66 1.98 1.32 3 2 C4.9896995 2.39013716 6.99019869 2.73202649 9 3 C9 3.33 9 3.66 9 4 C7.741875 4.04125 6.48375 4.0825 5.1875 4.125 C4.47980469 4.14820312 3.77210937 4.17140625 3.04296875 4.1953125 C1 4 1 4 -2 2 C-1.34 1.34 -0.68 0.68 0 0 Z " fill="#7A6F5C" transform="translate(33,63)"/>
<path d="M0 0 C0.66 0.33 1.32 0.66 2 1 C2 2.98 2 4.96 2 7 C1.01 7.495 1.01 7.495 0 8 C-0.38063221 5.6739143 -0.71269945 3.33944736 -1 1 C-0.67 0.67 -0.34 0.34 0 0 Z " fill="#837E78" transform="translate(47,22)"/>
</svg>
